<svg width="263" height="36" viewBox="0 0 263 36" fill="none" xmlns="http://www.w3.org/2000/svg">
<path d="M0.792 17.552C0.792 15.888 1.152 14.408 1.872 13.112C2.592 11.8 3.592 10.784 4.872 10.064C6.168 9.328 7.632 8.96 9.264 8.96C11.264 8.96 12.976 9.488 14.4 10.544C15.824 11.6 16.776 13.04 17.256 14.864H12.744C12.408 14.16 11.928 13.624 11.304 13.256C10.696 12.888 10 12.704 9.216 12.704C7.952 12.704 6.928 13.144 6.144 14.024C5.36 14.904 4.968 16.08 4.968 17.552C4.968 19.024 5.36 20.2 6.144 21.08C6.928 21.96 7.952 22.4 9.216 22.4C10 22.4 10.696 22.216 11.304 21.848C11.928 21.48 12.408 20.944 12.744 20.24H17.256C16.776 22.064 15.824 23.504 14.4 24.56C12.976 25.6 11.264 26.12 9.264 26.12C7.632 26.12 6.168 25.76 4.872 25.04C3.592 24.304 2.592 23.288 1.872 21.992C1.152 20.696 0.792 19.216 0.792 17.552ZM23.8733 9.152V26H19.7693V9.152H23.8733ZM35.4394 26L31.9354 19.64H30.9514V26H26.8474V9.152H33.7354C35.0634 9.152 36.1914 9.384 37.1194 9.848C38.0634 10.312 38.7674 10.952 39.2314 11.768C39.6954 12.568 39.9274 13.464 39.9274 14.456C39.9274 15.576 39.6074 16.576 38.9674 17.456C38.3434 18.336 37.4154 18.96 36.1834 19.328L40.0714 26H35.4394ZM30.9514 16.736H33.4954C34.2474 16.736 34.8074 16.552 35.1754 16.184C35.5594 15.816 35.7514 15.296 35.7514 14.624C35.7514 13.984 35.5594 13.48 35.1754 13.112C34.8074 12.744 34.2474 12.56 33.4954 12.56H30.9514V16.736ZM46.6076 12.44V15.848H52.1036V19.016H46.6076V22.712H52.8236V26H42.5036V9.152H52.8236V12.44H46.6076ZM65.688 17.36C66.664 17.568 67.448 18.056 68.04 18.824C68.632 19.576 68.928 20.44 68.928 21.416C68.928 22.824 68.432 23.944 67.44 24.776C66.464 25.592 65.096 26 63.336 26H55.488V9.152H63.072C64.784 9.152 66.12 9.544 67.08 10.328C68.056 11.112 68.544 12.176 68.544 13.52C68.544 14.512 68.28 15.336 67.752 15.992C67.24 16.648 66.552 17.104 65.688 17.36ZM59.592 15.968H62.28C62.952 15.968 63.464 15.824 63.816 15.536C64.184 15.232 64.368 14.792 64.368 14.216C64.368 13.64 64.184 13.2 63.816 12.896C63.464 12.592 62.952 12.44 62.28 12.44H59.592V15.968ZM62.616 22.688C63.304 22.688 63.832 22.536 64.2 22.232C64.584 21.912 64.776 21.456 64.776 20.864C64.776 20.272 64.576 19.808 64.176 19.472C63.792 19.136 63.256 18.968 62.568 18.968H59.592V22.688H62.616ZM79.2763 26.168C77.6923 26.168 76.2363 25.8 74.9083 25.064C73.5963 24.328 72.5483 23.304 71.7643 21.992C70.9963 20.664 70.6123 19.176 70.6123 17.528C70.6123 15.88 70.9963 14.4 71.7643 13.088C72.5483 11.776 73.5963 10.752 74.9083 10.016C76.2363 9.28 77.6923 8.912 79.2763 8.912C80.8603 8.912 82.3083 9.28 83.6203 10.016C84.9483 10.752 85.9883 11.776 86.7403 13.088C87.5083 14.4 87.8923 15.88 87.8923 17.528C87.8923 19.176 87.5083 20.664 86.7403 21.992C85.9723 23.304 84.9323 24.328 83.6203 25.064C82.3083 25.8 80.8603 26.168 79.2763 26.168ZM79.2763 22.424C80.6203 22.424 81.6923 21.976 82.4923 21.08C83.3083 20.184 83.7163 19 83.7163 17.528C83.7163 16.04 83.3083 14.856 82.4923 13.976C81.6923 13.08 80.6203 12.632 79.2763 12.632C77.9163 12.632 76.8283 13.072 76.0123 13.952C75.2123 14.832 74.8123 16.024 74.8123 17.528C74.8123 19.016 75.2123 20.208 76.0123 21.104C76.8283 21.984 77.9163 22.424 79.2763 22.424ZM105.248 26H101.144L94.2795 15.608V26H90.1755V9.152H94.2795L101.144 19.592V9.152H105.248V26ZM123.508 17.36C124.484 17.568 125.268 18.056 125.86 18.824C126.452 19.576 126.748 20.44 126.748 21.416C126.748 22.824 126.252 23.944 125.26 24.776C124.284 25.592 122.916 26 121.156 26H113.308V9.152H120.892C122.604 9.152 123.94 9.544 124.9 10.328C125.876 11.112 126.364 12.176 126.364 13.52C126.364 14.512 126.1 15.336 125.572 15.992C125.06 16.648 124.372 17.104 123.508 17.36ZM117.412 15.968H120.1C120.772 15.968 121.284 15.824 121.636 15.536C122.004 15.232 122.188 14.792 122.188 14.216C122.188 13.64 122.004 13.2 121.636 12.896C121.284 12.592 120.772 12.44 120.1 12.44H117.412V15.968ZM120.436 22.688C121.124 22.688 121.652 22.536 122.02 22.232C122.404 21.912 122.596 21.456 122.596 20.864C122.596 20.272 122.396 19.808 121.996 19.472C121.612 19.136 121.076 18.968 120.388 18.968H117.412V22.688H120.436ZM133.233 12.44V15.848H138.729V19.016H133.233V22.712H139.449V26H129.129V9.152H139.449V12.44H133.233ZM150.705 26L147.201 19.64H146.217V26H142.113V9.152H149.001C150.329 9.152 151.457 9.384 152.385 9.848C153.329 10.312 154.033 10.952 154.497 11.768C154.961 12.568 155.193 13.464 155.193 14.456C155.193 15.576 154.873 16.576 154.233 17.456C153.609 18.336 152.681 18.96 151.449 19.328L155.337 26H150.705ZM146.217 16.736H148.761C149.513 16.736 150.073 16.552 150.441 16.184C150.825 15.816 151.017 15.296 151.017 14.624C151.017 13.984 150.825 13.48 150.441 13.112C150.073 12.744 149.513 12.56 148.761 12.56H146.217V16.736ZM167.969 17.36C168.945 17.568 169.729 18.056 170.321 18.824C170.913 19.576 171.209 20.44 171.209 21.416C171.209 22.824 170.713 23.944 169.721 24.776C168.745 25.592 167.377 26 165.617 26H157.769V9.152H165.353C167.065 9.152 168.401 9.544 169.361 10.328C170.337 11.112 170.825 12.176 170.825 13.52C170.825 14.512 170.561 15.336 170.033 15.992C169.521 16.648 168.833 17.104 167.969 17.36ZM161.873 15.968H164.561C165.233 15.968 165.745 15.824 166.097 15.536C166.465 15.232 166.649 14.792 166.649 14.216C166.649 13.64 166.465 13.2 166.097 12.896C165.745 12.592 165.233 12.44 164.561 12.44H161.873V15.968ZM164.897 22.688C165.585 22.688 166.113 22.536 166.481 22.232C166.865 21.912 167.057 21.456 167.057 20.864C167.057 20.272 166.857 19.808 166.457 19.472C166.073 19.136 165.537 18.968 164.849 18.968H161.873V22.688H164.897ZM177.622 9.152V19.232C177.622 20.24 177.87 21.016 178.366 21.56C178.862 22.104 179.59 22.376 180.55 22.376C181.51 22.376 182.246 22.104 182.758 21.56C183.27 21.016 183.526 20.24 183.526 19.232V9.152H187.63V19.208C187.63 20.712 187.31 21.984 186.67 23.024C186.03 24.064 185.166 24.848 184.078 25.376C183.006 25.904 181.806 26.168 180.478 26.168C179.15 26.168 177.958 25.912 176.902 25.4C175.862 24.872 175.038 24.088 174.43 23.048C173.822 21.992 173.518 20.712 173.518 19.208V9.152H177.622ZM196.823 9.152C198.599 9.152 200.151 9.504 201.479 10.208C202.807 10.912 203.831 11.904 204.551 13.184C205.287 14.448 205.655 15.912 205.655 17.576C205.655 19.224 205.287 20.688 204.551 21.968C203.831 23.248 202.799 24.24 201.455 24.944C200.127 25.648 198.583 26 196.823 26H190.511V9.152H196.823ZM196.559 22.448C198.111 22.448 199.319 22.024 200.183 21.176C201.047 20.328 201.479 19.128 201.479 17.576C201.479 16.024 201.047 14.816 200.183 13.952C199.319 13.088 198.111 12.656 196.559 12.656H194.615V22.448H196.559ZM218.437 23.024H212.149L211.141 26H206.845L212.941 9.152H217.693L223.789 26H219.445L218.437 23.024ZM217.381 19.856L215.293 13.688L213.229 19.856H217.381ZM240.092 9.152L234.26 20.432V26H230.156V20.432L224.324 9.152H228.98L232.244 16.208L235.484 9.152H240.092ZM252.234 23.024H245.946L244.938 26H240.642L246.738 9.152H251.49L257.586 26H253.242L252.234 23.024ZM251.178 19.856L249.09 13.688L247.026 19.856H251.178Z" fill="#232631"/>
<path d="M233.5 11C234.099 7.24885 235.247 4.47773 236.944 2.68664C238.674 0.895548 240.837 0 243.433 0C244.498 0 245.446 0.168971 246.278 0.506913C247.143 0.81106 248.125 1.28418 249.223 1.92627C250.022 2.39939 250.704 2.75422 251.269 2.99078C251.835 3.22734 252.417 3.34562 253.016 3.34562C254.813 3.34562 255.861 2.23041 256.161 0H262.5C261.901 3.75115 260.736 6.52227 259.006 8.31336C257.276 10.1045 255.113 11 252.517 11C251.452 11 250.487 10.831 249.622 10.4931C248.79 10.1551 247.825 9.68203 246.727 9.07373C245.895 8.60061 245.196 8.24578 244.631 8.00922C244.098 7.77266 243.533 7.65438 242.934 7.65438C241.137 7.65438 240.072 8.76959 239.739 11H233.5Z" fill="#007ADC"/>
</svg>
